<?xml version="1.0" encoding="utf-8"?>
<!-- Generator: Adobe Illustrator 12.0.0, SVG Export Plug-In  -->
<!DOCTYPE svg PUBLIC "-//W3C//DTD SVG 1.1//EN" "http://www.w3.org/Graphics/SVG/1.1/DTD/svg11.dtd" [
	<!ENTITY ns_flows "http://ns.adobe.com/Flows/1.0/">
	<!ENTITY ns_svg "http://www.w3.org/2000/svg">
	<!ENTITY ns_xlink "http://www.w3.org/1999/xlink">
]>
<svg  version="1.1" xmlns="&ns_svg;" xmlns:xlink="&ns_xlink;" xmlns:a="http://ns.adobe.com/AdobeSVGViewerExtensions/3.0/"
	 width="116" height="109" viewBox="-0.692 -0.865 116 109" enable-background="new -0.692 -0.865 116 109" xml:space="preserve">
<defs>
</defs>
<g>
	<g>
		<path fill="none" d="M81.896,98.151c-13.901-7.768-29.438-10.223-37.615-24.94c-5.724-9.813-12.265-21.668-11.447-33.117
			c1.227-16.353,18.397-21.668,32.297-21.26c6.543,0.409,20.444,1.635,25.76,5.725c4.088,3.679,5.315,13.491,5.725,19.215
			c0.408,11.451-8.586,16.762-18.399,20.441"/>
		<g>
			<path fill="#9C9B9B" d="M80.95,98.87c0.707,0.227-0.101-0.633,0.53,0.026C81.278,99.057,81.067,99.146,80.95,98.87z"/>
			<path fill="#9C9B9B" d="M80.777,63.987c1.598-2.269,5.102-2.283,6.81-4.551c0.226-0.213,0.392,0.74,0.875,0.21
				c1.345-2.493,4.796-4.245,6.974-6.88l0.109,0.284c0.425-0.495,0.231-1.426,0.443-2.017c0.146,0.053,0.146,0.283,0.389,0.219
				c-0.39-0.332,0.142-1.211-0.116-1.578c0.249-0.189,0.603-0.061,0.899-0.333l-0.412-0.494c-0.827-1.2,0.411-2.425-0.095-3.86
				c0.121,0.069,0.209,0.209,0.338,0.104c-0.56-2.202-0.902-4.838-1.479-7.196c0.201,0.066,0.558,0.104,0.748-0.068
				c-0.579-0.036-0.833-0.747-1.041-1.363c0.537-0.395-0.739-0.98-0.57-1.771l0.139,0.036c-0.708-0.409,0.18-0.887-0.63-1.156
				l0.35-0.446c-0.858-0.024,0.195-0.879-0.331-1.213l-0.157,0.062c-0.307-0.354,0.027-0.691-0.212-1.035l0.075-0.064
				c-0.536-0.792-0.303-1.46-0.89-1.203c0.359-0.496,0.541,0.753,1.054,0.008c-1.65-2.783-3.346-5.256-6.362-6.336
				c-0.224-0.363-0.407-0.519-0.391-0.771c-0.342,0.005-1.151-0.322-1.52-0.113c0.103,0.025-0.082-0.384-0.229-0.474
				c-0.481-0.383-0.811,0.506-1.326,0.067c0.286-0.098,0.43-0.273,0.415-0.524c-0.659,0.337-1.322,0.072-1.971,0.062
				c0.12-0.078,0.283-0.1,0.311-0.301c-0.799,0.352-1.196-0.433-1.873-0.197l0.302-0.316c-0.867-0.634-0.446,0.699-1.216,0.271
				c0.222-0.074,0.181-0.23,0.247-0.37c-0.909,0.507-2.098,0.012-2.917,0.142c0.055-0.043,0.059-0.145,0.059-0.145
				c-0.855-0.046-1.709-0.388-2.676-0.24c-0.316-0.21,0.233-0.889-0.688-0.86c-0.063,0.74-1.565,0.123-1.137,1.019
				c-0.749-0.204-1.93-0.642-2.469-0.426c0.374-0.249-0.286-0.936,0.362-0.94l-0.442-0.493c0.103-0.295,0.491,0.148,0.374-0.247
				c-0.327,0.001-1.296,0.208-1.573,0.062c-0.642,0.403-1.256,1.185-2.224,1.217c0.475-0.256-0.197-0.834,0.12-0.939l-1.445,1.323
				c-0.32,0.013-0.029-0.589-0.505-0.429c-0.023,0.2-0.154,0.3-0.302,0.465c-0.118-0.086-1.303,0.18-1.443-0.551
				c-0.143-0.286,0.52-0.151,0.166-0.414c-0.591,0.006-0.614,0.255-1.201,0.266l-0.015-0.097c-0.394-0.09-1.13,0.367-0.695,0.75
				c0.268,0.01-0.117-0.434,0.287-0.241c-0.259,0.437-0.921,0.589-1.496,0.625c0.189-0.126,0.154-0.32,0.222-0.531
				c-0.749,0.593-1.542,0.871-2.369,1.199c0.023,0.347,0.251-0.662,0.398-0.493c-1.172-0.387-2.17,0.944-3.178,0.408
				c0.139-0.084,0.162,0.475,0.136,0.38c-0.527,0.042-0.596-0.457-0.904-0.219c-0.092-0.292-0.411,0.178-0.735,0.347
				c-0.134,0.249-0.121-0.121,0.175-0.221c-0.442,0.363-2.242,1.198-3.425,1.156c0.074,0.182-0.448,0.882-0.696,0.934l-0.047-0.463
				c-0.32-0.207-0.8,0.323-0.972-0.031c-0.357,0.679,1.879-1.131,1.304-0.482c-0.309-0.305-0.776,0.99-0.816,0.359
				c-0.484,0.205-0.767,0.864-1.382,0.641c0.159,0.019,0.167-0.744-0.219-0.561c-0.671,0.344-0.119,0.28-0.625,0.635l-0.268,0.324
				c0.158,0.418-0.612,0.229-0.163,0.565c-0.236-0.293-0.845,0.658-1.106-0.036l-0.166-0.566c-0.274,0.18-0.2,0.776-0.302,1.108
				c-0.062-0.029-0.192-0.097-0.222-0.186c0.37,0.792-0.681,0.319-0.656,1.101c-0.718,0.065-1.42,0.808-1.959,0.566
				c-0.246,0.523-0.402,1.041-0.971,1.226c0.037-0.132,0.144-0.243,0.05-0.412c-0.443,0.018-0.396,0.229-0.525,0.568
				c-0.031-0.153-0.854,0.095-1.372,0.152c-0.184,0.539,0.286,0.756,0.456,0.999c-1-0.324-0.496,1.372-1.443,1.274
				c0.01-0.203,0.124-0.832-0.308-0.653c-0.963-0.176-0.114,1.091-0.836,1.438l0.688,0.268c-0.537,0.018-0.179,1.105-0.769,0.647
				c0.101,0.336-0.652,0.592,0.008,0.875c-1.071,0.755-0.888,2.588-2.225,2.906c0.067,0.202-0.165,0.581,0.21,0.596
				c0.456-0.157-0.165-0.46,0.122-0.483c-0.021,0.153,0.157,0.241,0.247,0.285c-0.252,0.299-0.382,0.572-0.856,0.074
				c-0.619,0.722,0.853,1.091,0.476,2.049c-0.284-0.099-0.404-0.04-0.4,0.273l0.419,0.642c-0.209,0.64-0.72,0.301-1.216,0.259
				c0.036,0.384-0.071,0.82,0.327,1.02l-0.62,0.425c0.448-0.315,0.303,0.326,0.425,0.505l-0.123-0.181
				c-0.212,0.062-0.078,0.507-0.015,0.729c0.309-0.052,0.431-0.49,0.519-0.725c0.22,0.196,0.171,0.489,0.431,0.74
				c-0.488-0.088-0.344,0.601-0.394,0.895c-0.104,0.343,0.438,0.365,0.423,0.462c-0.253,0.02-0.042,0.547-0.397,0.305
				c-0.082-0.112,0.246-0.274,0.022-0.455c-0.189,0.229-0.629,0.227-0.307,0.678c0.252,0.334,0.94-0.152,0.677,0.522
				c-0.15-0.162-0.336-0.178-0.513-0.301l-0.189,0.646l0.447-0.014c-0.101,0.094-0.148,0.04-0.201,0.083
				c0.494,0.14,0.282,0.934,0.825,1.007c0.09,0.3-0.213,0.692-0.22,0.999l-0.047-0.052c-0.207,0.406,0.032,0.868,0.369,1.114
				l-0.098,0.002c-0.024,0.206,0.146,0.659,0.479,0.848c-0.2,0.564-1.598,0.533-0.906,0.967c0.149,0.513,1,0.602,1.224,0.33
				c-0.033,0.98,0.854,1.803,0.506,2.829c0.217,0.073,0.296-0.042,0.491,0.188c0.321,1.362,1.428,2.556,1.066,3.902
				c-0.337-0.302-0.423,0.144-0.655,0.248c0.504,0.158-0.219,0.532,0.461,0.381c0.358-0.186,0.551-0.23,0.543-0.652
				c0.535,0.681,1.039,1.834,0.883,2.413c0.077-0.288,0.261-0.174,0.443-0.059c-0.609,0.21-0.449,0.818-0.056,1.15l0.383-0.108
				l-0.227,0.446c0.194,0.108,0.829-0.176,0.699,0.402c-0.126,0.088-0.253,0.18-0.314,0.305c0.506,0.297,1.297,0.663,1.235,1.282
				l-0.315,0.645c0.157,0.174,0.632,0.355,0.601-0.074c0.086,0.964,0.339,1.495,0.041,1.981c1.815,0.81,2.919,2.758,3.78,4.388
				l-0.281,0.099c0.008,0.563,0.571-0.033,0.566,0.365c-0.321,0.002-0.339,0.629-0.828,0.464c0.084,0.767,0.893,0.534,1.235,0.863
				c0.368-0.133-0.396-0.195,0.07-0.364c0.13-0.035,0.263,1.05,0.809,0.809c-0.113,0.25-0.549,0.36-0.801,0.401l0.454,0.196
				c-0.319,0.774-1.646-0.352-2.101,0.505l0.285,0.285c-0.327,0.631-1.147-0.549-0.803,0.405c0.479,0.23,1.388,0.095,1.413-0.354
				c0.593,0.655,1.393-0.385,1.82,0.403c-0.157,0.396-0.445-0.567-0.759-0.164c-0.165,0.618,0.665,0.595,0.737,0.999
				c-0.049-0.476,0.622-0.499,0.875-0.357c0.046,0.517-0.629,0.08-0.29,0.628c0.339-0.108,0.891,0.204,0.778-0.334
				c0.75-0.271,0.225,0.647,0.897,0.562c-0.294,0.499-1.376,0.23-1.16,0.962c0.342-0.403,1.07,0.26,1.443-0.519
				c0.044,0.307-0.25,0.592-0.615,0.632c-0.007,0.527,1.346,0.096,0.652,0.869l0.485-0.25c-0.046,0.204-0.025,0.419-0.1,0.762
				c0.231,0.27,1.261,0.332,0.672,0.868c0.139,0.021,0.702,0.588,0.86-0.016c-0.12-0.569-0.706-0.096-0.35-0.821
				c-0.217,0.69,0.563,0.43,0.896,0.475l-0.181,0.254c0.206,0.025,0.44,0.336,0.742,0.161c-0.212,0.043-0.308,0.242-0.26,0.387
				l0.443-0.228c0.644,0.281-0.434,0.723,0.142,1.074l-0.61-0.074c0.137,0.015,0.004,0.513,0.353,0.61
				c0.378-0.247,0.891-0.496,1.184-0.688c0.409,0.085-0.174,0.478,0.39,0.363l-0.703,0.101c-0.149,0.062-0.19,0.751,0.221,1.063
				c0.352,0.09,1.113-0.092,0.861-0.593c0.199,0.149,0.318,0.579-0.026,0.704c0.54,0.237,0.213-0.411,0.763-0.328
				c-0.002,0.344,0.286,1.033,0.374,1.597l-0.851,0.285l0.292,0.208c-0.714,0.206-0.053,0.494-0.617,0.841
				c0.154,0.22,0.522,0.224,0.809,0.229c-0.052-1.212,1.395-0.647,1.697-1.51c0.938,0.298-0.62,2.139,0.977,1.491
				c-0.023-0.283,0.729-0.614,0.077-0.709c0.465,0.393,0.802-0.552,1.215,0.126c-0.631,0.042,0.038,1.068-0.88,1.129
				c0.19-0.227-0.254-0.414-0.397-0.405c0.042,0.423-0.502,0.737,0.041,1.066c0.368,0.136,0.85,0.369,1.007-0.069
				c0.234-0.448-0.544-0.234-0.075-0.561c0.758,0.209,0.501,0.946,1.21,0.308c-0.459-0.166-0.311-0.679-0.133-0.978l0.586,0.077
				l-0.255,0.244c0.666,0.636,0.521-0.412,1.228,0.074l0.048,0.78c-0.446,0.409-0.984-0.822-1.289,0.073
				c0.484,0.301,0.86-0.022,1.227,0.435l-0.44-0.02c0.159,0.126-0.215,1.314,0.851,1.035c0.506-0.063,0.249-0.247,0.414-0.554
				c0.873,0.313,1.267,0.118,1.825,0.323c-0.403,0.563,0.932,0.504,0.035,0.855c-0.118-0.48-1.315-1.036-1.898-0.601
				c-0.057,0.872-0.601-0.423-1.147,0.218c0.66,0.348,0.273,1.041,0.151,1.561c0.172,0.127,0.453,0.02,0.601,0.003
				c0.295-0.401,0.046-0.516,0.255-0.975c0.686,0.496,1.535,0.597,2.16,0.354c0.151,0.337-0.135,0.742-0.457,0.645
				c0.971,0.288,1.906,0.803,2.727,1.322c-0.239-0.98,1.05,0.261,0.935-0.517c-0.395-0.372-0.563-1.068-0.16-1.281
				c0.271,0.176-0.152,0.315-0.1,0.524c0.549-0.233,0.293,0.896,0.937,0.429c-0.941-0.136-0.557,0.817-0.964,1.32
				c0.75-0.052-0.207,0.396,0.396,0.662c0.744-0.049,1.605,0.026,2.336,0.2c0.611,0.911,2.154,0.961,2.927,1.277
				c0.27,0.466-0.289,0.991,0.092,1.295c0.512,0.213-0.063-0.866,0.554-0.232l-0.13,0.096c0.296-0.045,1.168,1.067,1.817,0.248
				l-0.554,0.588c0.11,0.128,0.313,0.028,0.463,0.007c-0.1,0.229-0.034,0.509-0.329,0.554c0.235,0.688,0.999,0.365,1.502,0.594
				l-0.123-0.564c1.005,0.097,1.377,0.779,2.27,1.041l-0.227,0.383l0.604,0.014c-0.313,0.319-0.003,0.799,0.416,0.615l-1.74,0.319
				c-0.23-0.405,0.623-0.291,0.603-0.788c-0.015-0.434-0.829-0.698-1.14-0.374c0.268,0.186,0.324,0.104,0.621,0.071
				c-0.182,0.599-0.609,0.363-1.006,0.627c0.162,0.052,0.292,0.324,0.411,0.165c-0.43,0.124-0.746,0.021-1.242-0.205
				c0.437-0.055-0.015-0.434,0.187-0.53c-0.276,0.472-0.81,0.386-1.363-0.031c-0.174-0.772-1.324-0.165-1.961-0.65
				c0.516-0.368,1.069-0.599,1.599-0.6c-0.335-0.458-0.507-0.217-0.844-0.678c-0.388,0.272-0.8,0.773-1.492,0.741l0.134-0.385
				c-0.619-0.048-0.863,0.502-1.497,0.097c-1.08-0.699-2.295-1.225-3.167-1.664l0.129-0.385c-0.847,0.575-1.79-0.443-2.618-0.39
				c-0.979-0.866-2.645-0.793-2.932-1.692c-2.13-0.692-4.036-1.304-5.983-2.63l0.635-0.306c-0.576,0.159-0.061-0.434-0.453-0.567
				c0.162,0.647-0.797,0.232-1.239,0.388c-0.666-0.9-2.014-1.291-3.047-1.479l0.208-0.351c-1.229,0.068-1.717-1.221-2.56-2.037
				c0.003-0.215,0.101-0.651-0.186-0.854c-0.907,0.054-1.125-0.213-2.112-0.573c-0.517-0.476-1.14-1.469-1.43-2.15
				c-2.453-1.34-3.554-4.129-5.284-6.059l0.319-0.401c-2.153-1.651-2.849-4.835-4.338-6.492l0.82-0.198
				c-0.109-0.703-0.891-1.282-1.333-0.857c-0.084-0.727-1.121-1.359-0.715-2.046c-0.178-0.691-0.723-0.603-1.083-1.08
				c-0.307-1.424-0.568-1.879-1.249-3.047l0.086,0.325c0.224,0.064,0.546-0.062,0.462-0.386c-0.408-0.368-0.529-1.76-1.232-0.938
				c-0.016-1.53-1.59-3.036-1.357-4.604c-0.213,0.193-0.381-0.127-0.603-0.215c-0.35-1.263-0.161-2.713-0.86-3.608
				c0.079-0.228,0.523,0.215,0.419-0.299c-0.176-0.279-0.34,0.071-0.582-0.272c-0.854-2.021-0.269-4.344-0.431-6.262
				c-0.689-3.453-0.021-7.335,1.16-10.669l0.167,0.106c-0.182-1.393,1.726-2.229,1.303-3.53c0.308-0.149,0.644-0.876,0.852-0.497
				c0.014-1.159,1.914-1.814,2.263-3.28c-0.092,0.084-0.11,0.166-0.139,0.333c1.211-0.706,1.684-1.946,3.02-2.558
				c-0.061,0.151-0.227,0.353-0.134,0.528c0.652-0.025,0.508-1.417,1.312-0.844c0.239-0.188-0.104-0.513-0.241-0.376
				c2.649-1.49,5.186-3.521,8.075-4.734c2.271-0.192,0.627,1.44,2.049,0.257c0.187,0.133-0.007-0.373,0.071-0.193
				c0.567-0.445,1.271,0.716,1.573,0.113c-0.33-0.512,0.21-0.391,0.138-0.729c1.385,0.068,1.735,0.524,2.656-0.135l-0.017,0.316
				c1.032-1.036,2.491-0.852,3.393-1.931c6.818-1.061,13.283-0.749,19.559-0.026c5.973,1.733,13.251,0.591,19.123,8.932
				c0.201,2.01,0.305,2.053,1.243,3.654c-0.147-0.024-0.218-0.119-0.287,0.039c0.646-0.148,0.521,1.179,1.17,1.146
				c0.615,2.497,1.326,4.703,1.698,7.186c-0.131-0.382-0.688-0.489-0.574-0.034l0.487,0.42l-0.169,0.107
				c0.146,0.303,0.52,0.606,0.678,0.245c1.618,5.524,0.44,14.39-4.25,19.634c-1.269,1.111-2.657,2.978-3.998,4.07
				c-4.598,2.417-8.647,3.415-12.779,5.679C79.213,66.869,79.188,65.052,80.777,63.987z"/>
			<path fill="#9C9B9B" d="M80.146,98.518c0.019-0.362-0.352-0.764,0.215-0.957C80.262,97.857,80.331,98.284,80.146,98.518z"/>
			<path fill="#9C9B9B" d="M69.089,89.642c-0.057,0.082-0.125-0.201-0.144-0.267c0.164,0.045,0.42-0.143,0.475,0.067
				C69.253,89.395,69.215,89.548,69.089,89.642z"/>
			<path fill="#9C9B9B" d="M65.989,88.032c0.17-0.242,0.936-0.143,1.347,0.007L65.989,88.032z"/>
			<path fill="#9C9B9B" d="M63.627,85.569c-0.133-0.341-0.005-0.428,0.318-0.259C63.9,85.46,63.758,85.477,63.627,85.569z"/>
			<path fill="#9C9B9B" d="M63.129,86.063c-0.24-0.11-0.28-0.321-0.318-0.527C62.705,85.765,63.427,85.666,63.129,86.063z"/>
			<path fill="#9C9B9B" d="M57.714,82.001c-0.141-0.069-0.557-0.063-0.494-0.412C57.229,81.869,58.051,81.713,57.714,82.001z"/>
			<path fill="#9C9B9B" d="M55.005,80.585c-0.064-0.076-0.063-0.143-0.201-0.15c-0.057-0.215,0.224-0.264,0.357-0.192L55.005,80.585
				z"/>
			<polygon fill="#9C9B9B" points="38.484,30.791 38.397,31.12 38.193,30.915 			"/>
			<path fill="#9C9B9B" d="M60.288,21.12c0.329-0.2,0.255,0.262,0.314,0.302C60.297,21.467,60.693,21.057,60.288,21.12z"/>
			<polygon fill="#9C9B9B" points="74.257,20.418 74.148,20.414 74.261,19.825 			"/>
		</g>
	</g>
</g>
<g>
	<g>
		<path fill="none" d="M58.592,51.134c-11.448,0.408-34.344-2.043-37.207,14.31c-1.634,8.176,7.36,18.396,11.45,24.531
			c7.359,11.446,18.397,13.489,31.891,14.718c10.221,0.819,27.393,4.499,33.934-6.132c3.271-4.908,4.906-13.495,1.636-18.81
			c-4.907-8.994-15.536-0.407-24.122-3.271"/>
		<g>
			<path fill="#AE3451" d="M58.169,52.224c0.7-0.148-0.396-0.503,0.453-0.236C58.536,52.226,58.404,52.406,58.169,52.224z"/>
			<path fill="#AE3451" d="M78.339,77.702c2.382-1.191,5.336-0.054,7.666-1.463c0.271-0.113,0.076,0.838,0.679,0.523
				c2.02-1.583,6.272-1.704,8.658-0.1l-0.212,0.201c0.399,0.252,1.205-0.237,1.677,0.085c-0.071,0.139-0.24,0.105-0.241,0.361
				c0.326-0.344,0.879,0.315,1.284,0.157c0.056,0.271-0.213,0.564-0.172,0.894l0.576-0.181c1.618-0.25,1.289,1.695,2.337,2.48
				c-0.138,0-0.276-0.064-0.343,0.078c1.745,1.393,1.959,4.184,2.259,6.454c-0.185-0.096-0.525-0.18-0.747-0.051
				c0.56,0.115,0.662,0.838,0.736,1.475c-0.571,0.222,0.459,1.133-0.021,1.826l-0.115-0.083c0.503,0.647-0.486,0.726,0.15,1.311
				l-0.508,0.242c0.742,0.43-0.631,0.651-0.349,1.183l0.165,0.033c0.07,0.467-0.387,0.557-0.366,0.976l-0.099,0.005
				c-0.077,0.952-0.766,1.259-0.146,1.485c-0.6,0.102,0.129-0.912-0.762-0.719c-0.458,2.978-2.29,5.776-4.742,7.649
				c-0.442-0.005-0.663,0.054-0.865-0.101c-0.177,0.26-0.827,0.768-0.93,1.144c0.084-0.057-0.336-0.197-0.49-0.155
				c-0.588,0.024-0.214,0.895-0.887,0.911c0.147-0.264,0.128-0.486-0.043-0.666c-0.227,0.71-0.922,0.851-1.438,1.206
				c0.054-0.133,0.169-0.242,0.078-0.424c-0.441,0.745-1.155,0.319-1.619,0.77l0.11-0.406c-1.006-0.221-0.068,0.812-0.922,0.743
				c0.163-0.159,0.063-0.284,0.062-0.438c-0.57,0.866-1.84,0.833-2.553,1.161c0.038-0.057,0.012-0.155,0.012-0.155
				c-0.805,0.233-1.679,0.045-2.559,0.421c-0.338-0.144,0.051-0.897-0.796-0.717c0.065,0.741-1.452,0.336-0.921,1.165
				c-0.755-0.09-1.924-0.374-2.422-0.147c0.338-0.273-0.338-0.915,0.272-0.963l-0.448-0.462c0.075-0.301,0.467,0.114,0.329-0.271
				c-0.3,0.023-1.188,0.298-1.455,0.168c-0.578,0.422-1.145,1.24-2.075,1.28c0.451-0.264-0.19-0.831,0.111-0.94l-1.385,1.322
				c-0.309,0.009-0.019-0.59-0.477-0.435c0.006,0.199-0.197,0.304-0.346,0.451c-0.109-0.091-1.293,0.073-1.354-0.672
				c-0.107-0.298,0.51-0.103,0.198-0.396c-0.561-0.049-0.61,0.198-1.173,0.153l-0.001-0.099c-0.359-0.145-1.124,0.198-0.765,0.643
				c0.257,0.049-0.052-0.447,0.309-0.197c-0.307,0.397-0.969,0.443-1.53,0.392c0.203-0.097,0.201-0.293,0.299-0.49
				c-0.813,0.489-1.632,0.584-2.487,0.735c-0.05,0.345,0.377-0.596,0.48-0.4c-1.026-0.6-2.268,0.455-3.081-0.324
				c0.15-0.048,0.036,0.499,0.034,0.4c-0.5-0.088-0.478-0.594-0.816-0.442c-0.007-0.297-0.438,0.051-0.798,0.104
				c-0.203,0.192-0.077-0.153,0.23-0.153c-0.51,0.198-2.525,0.444-3.609-0.102c0.001,0.201-0.782,0.637-1.046,0.567l0.16-0.438
				c-0.204-0.307-0.884-0.091-0.875-0.484c-0.63,0.472,2.208-0.158,1.4,0.158c-0.146-0.401-1.146,0.569-0.903-0.024
				c-0.525-0.059-1.11,0.374-1.55-0.123c0.135,0.095,0.517-0.565,0.091-0.595c-0.755-0.028-0.244,0.185-0.872,0.246l-0.41,0.129
				c-0.097,0.437-0.659-0.158-0.463,0.374c-0.03-0.376-1.131,0.064-0.923-0.665l0.207-0.551c-0.326-0.026-0.635,0.489-0.939,0.686
				c-0.033-0.062-0.096-0.195-0.061-0.283c-0.227,0.861-0.756-0.241-1.285,0.347c-0.615-0.449-1.732-0.407-1.916-1.016
				c-0.588,0.17-1.147,0.284-1.688-0.079c0.142-0.042,0.31-0.015,0.396-0.188c-0.295-0.37-0.45-0.174-0.833-0.146
				c0.114-0.103-0.582-0.735-0.88-1.163c-0.589,0.088-0.579,0.597-0.727,0.856c-0.164-0.971-1.666,0.068-1.931-0.981
				c0.222-0.03,0.881-0.064,0.558-0.459c-0.098-1.014-1.151,0.177-1.706-0.551l-0.132,0.743c-0.13-0.561-1.271-0.133-0.863-0.761
				c-0.366,0.116-0.744-0.62-1.001,0.043c-0.872-1.13-2.975-1.503-2.921-2.97c-0.227-0.011-0.544-0.372-0.687-0.028
				c0.023,0.495,0.537,0.022,0.472,0.305c-0.154-0.079-0.302,0.057-0.376,0.124c-0.25-0.365-0.482-0.585,0.2-0.835
				c-0.472-0.841-1.471,0.332-2.187-0.676c0.235-0.184,0.245-0.327-0.037-0.528l-0.823-0.085c-0.479-0.616,0.155-0.776,0.491-1.145
				c-0.349-0.213-0.683-0.563-1.086-0.436l0.11-0.757c-0.087,0.552-0.459-0.024-0.64-0.111l0.204,0.067
				c0.116-0.198-0.258-0.474-0.447-0.619c-0.203,0.243-0.012,0.7,0.079,0.965c-0.289-0.018-0.445-0.307-0.809-0.358
				c0.428-0.243-0.132-0.746-0.285-1.032c-0.138-0.356-0.596-0.062-0.649-0.158c0.195-0.162-0.331-0.507,0.127-0.491
				c0.141,0.05-0.022,0.377,0.279,0.407c0.003-0.31,0.373-0.552-0.185-0.756c-0.421-0.155-0.718,0.65-0.905-0.108
				c0.213,0.081,0.392-0.006,0.623,0.008l-0.195-0.68l-0.382,0.231c0.038-0.137,0.108-0.109,0.131-0.176
				c-0.495,0.123-0.761-0.774-1.243-0.535c-0.21-0.225-0.107-0.701-0.23-0.972l0.064,0.024c0.017-0.443-0.405-0.741-0.829-0.815
				l0.089-0.044c-0.086-0.182-0.416-0.524-0.773-0.575c-0.024-0.607,1.266-1.119,0.481-1.25c-0.315-0.41-1.136-0.179-1.246,0.156
				c-0.299-0.933-1.517-1.371-1.458-2.492c-0.226-0.008-0.268,0.128-0.517-0.041c-0.657-1.229-2.124-2.147-2.001-3.575
				c0.38,0.24,0.389-0.22,0.598-0.363c-0.519-0.065,0.129-0.56-0.513-0.293c-0.321,0.243-0.505,0.319-0.424,0.74
				c-0.642-0.593-1.323-1.718-1.237-2.316c-0.043,0.302-0.24,0.202-0.438,0.098c0.585-0.27,0.36-0.865-0.073-1.175l-0.375,0.13
				l0.2-0.467c-0.2-0.1-0.825,0.209-0.712-0.403c0.124-0.094,0.248-0.189,0.307-0.319c-0.502-0.307-1.341-0.699-1.255-1.369
				l0.339-0.652c-0.151-0.19-0.629-0.431-0.612,0.023c-0.081-1.005-0.224-1.629,0.137-2.075c-1.698-1.128-2.445-3.773-2.27-6.06
				l0.294,0.07c0.274-0.582-0.54-0.316-0.295-0.74c0.258,0.206,0.655-0.412,0.946,0.07c0.397-0.786-0.384-1.115-0.438-1.712
				c-0.368-0.154,0.183,0.493-0.285,0.304c-0.147-0.177,0.483-0.943-0.029-1.24c0.275-0.149,0.652,0.1,0.857,0.25l-0.155-0.528
				c0.802-0.379,0.856,1.52,1.83,1.106l0.012-0.404c0.689-0.22,0.409,1.131,0.862,0.245c-0.175-0.453-0.893-1.04-1.245-0.718
				c0.088-0.945-1.227-0.787-0.894-1.815c0.401-0.174-0.151,0.856,0.363,0.794c0.59-0.328-0.02-1.044,0.324-1.406
				c-0.414,0.379-0.793-0.208-0.742-0.565c0.498-0.41,0.353,0.538,0.75-0.156c-0.255-0.245-0.153-1.037-0.651-0.545
				c-0.558-0.598,0.564-0.684,0.245-1.362c0.582,0.03,0.727,1.323,1.346,0.673c-0.521-0.115-0.123-1.316-0.99-1.291
				c0.291-0.25,0.679-0.042,0.806,0.331c0.53-0.224-0.058-1.516,0.872-1.057l-0.32-0.451c0.234-0.025,0.475-0.128,0.85-0.149
				c0.249-0.341,0.349-1.586,0.928-0.98c0.038-0.148,0.788-0.788,0.126-0.929c-0.704,0.191-0.237,0.765-1.036,0.496
				c0.769,0.109,0.608-0.676,0.752-1.084l0.256,0.185c0.08-0.238,0.501-0.526,0.39-0.874c-0.015,0.249,0.191,0.347,0.368,0.29
				l-0.125-0.516c0.547-0.767,0.65,0.458,1.256-0.116l-0.289,0.661c0.052-0.168,0.546,0.032,0.782-0.294
				c-0.125-0.429-0.173-1.01-0.242-1.361c0.304-0.421,0.443,0.287,0.605-0.34l-0.236,0.766c0.004,0.165,0.73,0.368,1.23,0.035
				c0.243-0.332,0.478-1.207-0.178-1.071c0.266-0.195,0.776-0.151,0.707,0.233c0.552-0.425-0.303-0.366,0.118-0.859
				c0.358,0.146,1.228,0.188,1.798,0.381l-0.243,0.902l0.356-0.159c-0.214,0.732,0.41,0.292,0.406,0.961
				c0.27-0.022,0.467-0.339,0.634-0.59c-1.085-0.577,0.295-1.583-0.214-2.296c0.973-0.585,1.355,1.809,1.972,0.145
				c-0.247-0.161,0.06-0.971-0.518-0.509c0.672-0.123,0.178-0.994,1.061-0.9c-0.463,0.532,0.844,0.668,0.186,1.435
				c-0.029-0.299-0.509-0.066-0.606,0.053c0.358,0.239,0.214,0.867,0.84,0.659c0.358-0.215,0.889-0.329,0.693-0.765
				c-0.145-0.485-0.586,0.196-0.468-0.358c0.75-0.36,1.063,0.356,1.18-0.595c-0.485,0.189-0.741-0.286-0.818-0.625l0.548-0.347
				l-0.037,0.354c1.011,0.009,0.144-0.661,1.102-0.794l0.569,0.549c-0.104,0.611-1.396,0.067-1.027,0.937
				c0.595-0.097,0.698-0.625,1.303-0.494l-0.379,0.267c0.224-0.028,0.658,1.159,1.352,0.311c0.38-0.347,0.057-0.346,0.008-0.69
				c0.927-0.259,1.161-0.657,1.77-0.811c-0.033,0.681,1.081-0.052,0.501,0.708c-0.351-0.383-1.732-0.093-1.952,0.592
				c0.475,0.74-0.755,0.009-0.805,0.845c0.744-0.103,0.842,0.685,1.045,1.178c0.205,0.004,0.363-0.246,0.471-0.344
				c0.009-0.498-0.254-0.447-0.352-0.942c0.843-0.007,1.594-0.406,1.996-0.913c0.307,0.21,0.275,0.705-0.043,0.786
				c0.958-0.239,2.016-0.315,2.951-0.225c-0.663-0.757,1.02-0.254,0.563-0.89c-0.511-0.147-0.991-0.685-0.74-1.06
				c0.32,0.03,0.017,0.35,0.162,0.51c0.371-0.46,0.671,0.657,1.018-0.054c-0.885,0.315-0.109,0.981-0.232,1.616
				c0.616-0.392,0.002,0.446,0.633,0.405c0.612-0.393,1.383-0.711,2.085-0.861c0.909,0.56,2.25-0.069,3.04-0.094
				c0.418,0.311,0.149,1.021,0.596,1.139c0.524-0.021-0.398-0.758,0.382-0.445l-0.074,0.142c0.235-0.17,1.425,0.465,1.647-0.549
				l-0.234,0.767c0.145,0.07,0.277-0.106,0.396-0.189c0.007,0.25,0.176,0.476-0.057,0.641c0.479,0.526,1-0.087,1.519-0.111
				l-0.335-0.452c0.887-0.358,1.478,0.086,2.334-0.076l-0.022,0.443l0.508-0.269c-0.122,0.431,0.351,0.706,0.615,0.338l-1.316,1.099
				c-0.371-0.26,0.399-0.537,0.164-0.974c-0.2-0.382-0.991-0.256-1.118,0.172c0.304,0.047,0.318-0.05,0.553-0.212
				c0.104,0.617-0.358,0.596-0.585,1.009c0.16-0.026,0.388,0.16,0.421-0.035c-0.312,0.302-0.629,0.351-1.151,0.369
				c0.352-0.244-0.192-0.382-0.06-0.559c-0.04,0.543-0.536,0.713-1.18,0.563c-0.461-0.626-1.207,0.404-1.946,0.244
				c0.295-0.554,0.677-1.003,1.13-1.225c-0.47-0.274-0.521,0.018-0.993-0.253c-0.223,0.414-0.378,1.044-0.981,1.303l-0.039-0.406
				c-0.548,0.214-0.537,0.815-1.237,0.712c-1.195-0.152-2.429-0.132-3.337-0.122l-0.055-0.401c-0.457,0.898-1.662,0.429-2.311,0.856
				c-1.18-0.26-2.427,0.637-3.094,0.03c-1.962,0.609-3.593,1.228-5.571,1.66l0.158-0.675c-0.227,0.533-0.324-0.25-0.647-0.049
				c0.534,0.317-0.294,0.743-0.408,1.162c-1.031-0.194-1.888,0.784-2.378,1.47l-0.208-0.351c-0.395,0.951-1.371,0.921-2.287,1.319
				c-0.179-0.067-0.588-0.313-0.765-0.07c0.027,0.863-0.192,1.006-0.443,1.779c-0.445,0.299-0.977,0.92-1.537,1.183
				c-0.426,2.04-1.534,3.676-1.369,5.85l-0.487,0.064c0.744,1.753,0.353,4.166,1.528,5.735l-0.82,0.122
				c-0.07,0.635,0.704,1.139,1.161,0.774c-0.018,0.628,0.93,1.122,0.509,1.747c0.14,0.602,0.648,0.48,0.996,0.86
				c0.309,1.198,0.606,1.561,1.344,2.461l-0.105-0.271c-0.219-0.014-0.52,0.156-0.414,0.432c0.405,0.252,0.685,1.471,1.26,0.579
				c0.199,1.356,1.995,2.16,2.093,3.605c0.156-0.239,0.378-0.014,0.6-0.011c0.66,0.904,0.918,2.188,1.823,2.668
				c-0.002,0.225-0.538,0.029-0.287,0.424c0.244,0.165,0.285-0.2,0.606-0.008c1.501,1.269,1.835,3.534,2.815,4.538
				c1.946,1.871,3.734,3.917,5.907,5.2l-0.133,0.146c1.105-0.196,1.21,1.843,2.426,1.086c0.095,0.248,0.654,0.401,0.349,0.675
				c0.849-0.21,1.516,1.317,2.717,1.043c-0.082-0.044-0.147-0.024-0.28,0.021c0.832,0.718,1.884,0.438,2.796,1.146
				c-0.128,0.047-0.337,0.042-0.425,0.219c0.304,0.492,1.174-0.483,1.146,0.497c0.243,0.052,0.292-0.417,0.138-0.423
				c2.29,0.898,4.969,0.866,7.565,0.961c1.758,0.822-0.098,1.603,1.453,1.093c0.101,0.193,0.131-0.348,0.127-0.151
				c0.603-0.202,0.774,1.137,1.229,0.689c-0.101-0.592,0.301-0.294,0.351-0.643c1.106,0.492,1.29,1.036,2.24,0.693l-0.098,0.296
				c1.078-0.743,2.406-0.183,3.402-1.067c6.021,0.453,11.631,0.61,16.763,0.002c5.293-0.403,8.811-2.197,11.349-5.921
				c1.25-0.519,1.268-0.698,1.451-1.976c0.1,0.095,0.098,0.18,0.244,0.146c-0.582-0.293,0.295-0.847-0.29-1.18
				c0.634-1.677,0.88-3.391,0.887-5.158c0.053,0.283,0.579,0.463,0.557,0.111l-0.396-0.371l0.188-0.056
				c-0.082-0.239-0.388-0.483-0.616-0.249c-0.819-4.155-1.087-8.064-4.945-7.708c-1.012-0.242-2.598,0.189-3.921,0.579
				c-4.211-0.24-8.353,0.337-13.645-0.621C75.284,79.134,76.5,77.833,78.339,77.702z"/>
			<path fill="#AE3451" d="M57.323,52.308c-0.159-0.325-0.652-0.494-0.27-0.94C57.108,51.676,57.368,52.014,57.323,52.308z"/>
			<path fill="#AE3451" d="M44.144,49.193c-0.012,0.099-0.199-0.121-0.245-0.17c0.163-0.036,0.301-0.321,0.444-0.16
				C44.176,48.897,44.211,49.051,44.144,49.193z"/>
			<path fill="#AE3451" d="M40.7,49.29c0.019-0.295,0.736-0.605,1.172-0.687L40.7,49.29z"/>
			<path fill="#AE3451" d="M37.28,48.551c-0.327-0.196-0.273-0.341,0.116-0.397C37.449,48.302,37.334,48.4,37.28,48.551z"/>
			<path fill="#AE3451" d="M37.161,49.244c-0.269,0.052-0.434-0.095-0.598-0.238C36.619,49.252,37.167,48.748,37.161,49.244z"/>
			<path fill="#AE3451" d="M29.762,50.401c-0.167,0.101-0.442,0.494-0.733,0.271C29.296,50.797,29.733,49.943,29.762,50.401z"/>
			<path fill="#AE3451" d="M26.67,52.441c-0.112,0.048-0.181,0.03-0.257,0.174c-0.258,0.008-0.173-0.3-0.025-0.426L26.67,52.441z"/>
			<polygon fill="#AE3451" points="44.284,102.561 43.896,102.537 44.064,102.297 			"/>
			<path fill="#AE3451" d="M69.354,107.35c0.355-0.146,0.204,0.297,0.256,0.346C69.303,107.694,69.762,107.351,69.354,107.35z"/>
			<polygon fill="#AE3451" points="83.048,106.646 82.944,106.656 82.952,106.059 			"/>
		</g>
	</g>
</g>
<g>
	<g>
		<path fill="none" d="M47.911,41.957c0-13.494-0.764-28.055,15.127-35.163c20.508-9.173,33.15,2.323,42.61,15.263
			c7.903,10.812,7.681,24.805-3.359,39.523c-4.498,5.722-10.631,11.446-17.991,13.082"/>
		<g>
			<path fill="#AE3451" d="M46.83,41.582c0.134,0.574,0.511-0.31,0.227,0.375C46.821,41.88,46.643,41.768,46.83,41.582z"/>
			<path fill="#AE3451" d="M86.356,74.835c1.281-1.943,4.07-1.657,5.352-3.571c0.166-0.181,0.407,0.754,0.745,0.277
				c0.967-2.103,3.762-3.332,6.109-4.48l0.061,0.271c0.452-0.212,0.32-1.139,0.716-1.431c0.115,0.105,0.055,0.27,0.287,0.335
				c-0.26-0.417,0.44-0.806,0.321-1.196c0.265-0.019,0.53,0.247,0.854,0.199l-0.211-0.565c-0.423-1.396,1.282-1.383,1.457-2.611
				c0.065,0.117,0.074,0.259,0.223,0.271c0.42-1.828,1.757-3.425,2.475-5.19c0.123,0.162,0.38,0.403,0.62,0.423
				c-0.432-0.378-0.249-0.942-0.082-1.423c0.636,0.106-0.037-1.007,0.515-1.359l0.09,0.105c-0.334-0.668,0.612-0.399,0.131-1.047
				l0.535-0.032c-0.649-0.54,0.691-0.352,0.456-0.87l-0.156-0.063c-0.042-0.391,0.401-0.373,0.404-0.717l0.098,0.012
				c0.104-0.753,0.697-0.958,0.101-1.194c0.578-0.032-0.075,0.738,0.774,0.668c0.384-2.479,1.272-4.764,1.753-7.142
				c0.305-0.216,0.416-0.375,0.666-0.391c-0.079-0.265,0.063-0.929-0.219-1.195c0,0.083,0.354-0.103,0.394-0.229
				c0.289-0.413-0.644-0.576-0.306-1.018c0.147,0.21,0.346,0.303,0.59,0.265c-0.451-0.475-0.311-1.013-0.419-1.511
				c0.1,0.083,0.15,0.205,0.353,0.202c-0.505-0.571,0.155-0.976-0.181-1.461l0.365,0.187c0.467-0.757-0.768-0.241-0.487-0.887
				c0.113,0.156,0.26,0.102,0.409,0.131c-0.624-0.613-0.494-1.583-0.758-2.169c0.054,0.032,0.154,0.014,0.154,0.014
				c-0.104-0.646,0.018-1.355-0.401-2.021c0.122-0.284,0.905-0.052,0.66-0.731c-0.712,0.15-0.506-1.112-1.253-0.541
				c-0.022-0.583,0.02-1.559-0.317-1.869c0.336,0.182,0.8-0.533,0.982-0.064l0.34-0.497c0.305-0.028-0.002,0.416,0.336,0.191
				c-0.073-0.252-0.604-0.871-0.566-1.123c-0.591-0.31-1.524-0.42-1.856-1.069c0.396,0.217,0.685-0.489,0.894-0.316l-1.734-0.388
				c-0.131-0.204,0.513-0.287,0.192-0.527c-0.172,0.099-0.345,0.011-0.532-0.016c0.049-0.126-0.575-0.816,0-1.238
				c0.199-0.228,0.331,0.279,0.43-0.08c-0.229-0.396-0.46-0.295-0.69-0.685l0.081-0.055c-0.053-0.319-0.697-0.613-0.889-0.126
				c0.079,0.19,0.341-0.29,0.306,0.083c-0.479,0.034-0.796-0.365-1.064-0.716c0.183,0.062,0.338-0.057,0.548-0.115
				c-0.822-0.193-1.317-0.604-1.875-1.006c-0.289,0.192,0.651-0.164,0.557,0.024c-0.053-0.99-1.613-1.038-1.468-2.043
				c0.12,0.059-0.355,0.35-0.282,0.285c-0.219-0.362,0.192-0.653-0.12-0.76c0.215-0.201-0.281-0.223-0.529-0.385
				c-0.259,0.019,0.067-0.146,0.246,0.026c-0.446-0.156-1.779-1.082-2.016-2.06c-0.135,0.133-0.91,0.048-1.027-0.119l0.4-0.237
				c0.082-0.32-0.486-0.493-0.215-0.776c-0.712,0.031,1.485,0.972,0.765,0.801c0.187-0.365-1.103-0.151-0.546-0.461
				c-0.289-0.302-0.938-0.261-0.88-0.844c0.02,0.135,0.695-0.169,0.447-0.401c-0.454-0.393-0.273,0.02-0.704-0.24l-0.343-0.092
				c-0.339,0.29-0.321-0.417-0.532,0.08c0.216-0.304-0.754-0.449-0.182-0.919l0.476-0.346c-0.21-0.154-0.732,0.127-1.052,0.165
				l0.126-0.248c-0.659,0.6-0.37-0.488-1.062-0.212c-0.168-0.582-0.96-0.915-0.77-1.494c-0.482-0.075-0.962-0.08-1.175-0.534
				c0.122-0.002,0.23,0.063,0.376-0.064c-0.042-0.397-0.252-0.265-0.552-0.314c0.133-0.064-0.118-0.758-0.181-1.208
				c-0.483-0.045-0.67,0.421-0.883,0.625c0.242-0.913-1.203-0.268-1.112-1.143c0.186-0.026,0.735-0.02,0.591-0.39
				c0.2-0.92-0.994,0.116-1.239-0.556l-0.286,0.685c0.033-0.521-0.936-0.118-0.486-0.709c-0.3,0.113-0.443-0.59-0.761,0.052
				c-0.533-0.969-2.146-0.779-2.111-2.174c-0.178,0.055-0.442-0.188-0.529,0.172c0.04,0.446,0.41-0.135,0.373,0.142
				c-0.121-0.028-0.229,0.139-0.281,0.223c-0.199-0.258-0.396-0.396,0.107-0.827c-0.444-0.664-1.112,0.845-1.753,0.271
				c0.142-0.261,0.123-0.389-0.117-0.44l-0.598,0.312c-0.464-0.258-0.073-0.719,0.076-1.194c-0.309-0.001-0.646-0.126-0.879,0.191
				l-0.163-0.701c0.124,0.508-0.314,0.22-0.477,0.298l0.163-0.078c0.005-0.22-0.356-0.192-0.535-0.181
				c-0.034,0.312,0.259,0.53,0.411,0.669c-0.197,0.169-0.401,0.055-0.647,0.25c0.183-0.463-0.361-0.472-0.576-0.54
				c-0.236-0.148-0.379,0.378-0.449,0.35c0.045-0.25-0.404-0.114-0.139-0.428c0.104-0.065,0.15,0.276,0.34,0.083
				c-0.129-0.214-0.026-0.645-0.443-0.39c-0.309,0.191-0.106,0.961-0.546,0.57c0.149-0.096,0.207-0.285,0.34-0.439l-0.432-0.334
				l-0.089,0.437c-0.046-0.123,0.004-0.154-0.017-0.217c-0.21,0.439-0.737,0.015-0.905,0.519c-0.237,0.025-0.463-0.335-0.688-0.4
				l0.048-0.037c-0.257-0.276-0.648-0.125-0.896,0.162l0.018-0.097c-0.149-0.043-0.513,0.006-0.707,0.256
				c-0.372-0.359-0.104-1.689-0.546-1.155c-0.407,0.03-0.613,0.854-0.45,1.126c-0.716-0.254-1.449,0.518-2.157-0.134
				c-0.083,0.185-0.008,0.294-0.202,0.41c-1.053-0.028-2.034,0.887-3.024,0.161c0.259-0.234-0.073-0.438-0.136-0.685
				c-0.163,0.434-0.396-0.356-0.331,0.335c0.115,0.385,0.136,0.575,0.458,0.687c-0.558,0.33-1.448,0.63-1.887,0.352
				c0.217,0.131,0.12,0.287,0.024,0.44c-0.132-0.631-0.609-0.593-0.88-0.281l0.07,0.386l-0.34-0.321
				c-0.093,0.156,0.111,0.82-0.335,0.558l-0.231-0.369c-0.242,0.429-0.525,1.135-1.005,0.965L66.14,8.205
				c-0.137,0.122-0.274,0.545,0.061,0.59c-0.749-0.074-1.172,0.046-1.566-0.33c-0.636,1.533-1.971,2.307-3.121,2.869l-0.119-0.271
				c-0.429-0.045,0.119,0.534-0.184,0.49c-0.055-0.298-0.544-0.37-0.498-0.809c-0.59,0.017-0.266,0.78-0.454,1.061
				c0.176,0.344,0.076-0.343,0.298,0.095c0.035,0.141-0.737,0.119-0.461,0.632c-0.235-0.12-0.408-0.516-0.489-0.745l-0.082,0.397
				c-0.723-0.329-0.002-1.464-0.814-1.922l-0.198,0.238c-0.607-0.331,0.279-1.001-0.493-0.748c-0.121,0.419,0.2,1.288,0.567,1.305
				c-0.411,0.551,0.611,1.295,0.067,1.685c-0.358-0.146,0.361-0.407-0.035-0.7c-0.544-0.156-0.333,0.618-0.656,0.671
				c0.387-0.036,0.562,0.583,0.483,0.786c-0.442,0.007-0.193-0.554-0.607-0.292c0.161,0.302,0,0.759,0.447,0.696
				c0.377,0.652-0.495,0.176-0.253,0.781c-0.485-0.265-0.533-1.241-1.083-1.046c0.416,0.31,0.057,0.961,0.794,1.295
				c-0.239,0.037-0.552-0.224-0.679-0.55c-0.438,0,0.215,1.139-0.614,0.525l0.328,0.419c-0.189-0.047-0.382-0.044-0.697-0.113
				c-0.164,0.208,0.076,1.104-0.543,0.6c0.016,0.118-0.363,0.566,0.218,0.709c0.48-0.082-0.075-0.574,0.631-0.277
				c-0.629-0.17-0.24,0.458-0.19,0.73l-0.271-0.153c0.027,0.166-0.196,0.348,0.037,0.593c-0.091-0.17-0.293-0.252-0.414-0.217
				l0.314,0.359c-0.048,0.541-0.75-0.35-0.877,0.144l-0.122-0.517c0.025,0.112-0.431,0.026-0.427,0.313
				c0.319,0.303,0.677,0.711,0.927,0.941c0.031,0.32-0.479-0.135-0.228,0.306l-0.275-0.553c-0.094-0.119-0.732-0.146-0.915,0.189
				c0.006,0.283,0.375,0.869,0.768,0.665c-0.094,0.149-0.417,0.279-0.642,0.003c-0.036,0.452,0.435,0.156,0.53,0.6
				c-0.314,0.007-0.869,0.256-1.367,0.356l-0.494-0.651l-0.114,0.242c-0.382-0.552-0.474-0.012-0.947-0.438
				c-0.164,0.138-0.071,0.432,0.001,0.658c1.119-0.118,0.975,1.041,1.878,1.214c0.011,0.738-2.162-0.301-1.096,0.868
				c0.257-0.042,0.785,0.496,0.684-0.004c-0.231,0.387,0.75,0.554,0.238,0.92c-0.224-0.468-0.991,0.136-1.314-0.549
				c0.268,0.122,0.314-0.234,0.264-0.342c-0.383,0.073-0.834-0.313-0.987,0.139c-0.023,0.297-0.11,0.689,0.354,0.76
				c0.481,0.123,0.064-0.436,0.504-0.119c0.027,0.591-0.734,0.493,0.077,0.946c0.015-0.365,0.539-0.313,0.873-0.214l0.109,0.442
				l-0.307-0.16c-0.389,0.569,0.546,0.335,0.31,0.911l-0.718,0.137c-0.521-0.274,0.468-0.831-0.464-0.944
				c-0.137,0.4,0.291,0.639-0.039,0.966l-0.11-0.325c-0.056,0.138-1.335,0.017-0.723,0.778c0.222,0.367,0.312,0.146,0.652,0.22
				c-0.013,0.694,0.302,0.952,0.282,1.386c-0.656-0.193-0.2,0.751-0.804,0.171c0.434-0.165,0.563-1.129-0.032-1.493
				c-0.834,0.098,0.202-0.515-0.569-0.825c-0.119,0.551-0.89,0.374-1.417,0.369c-0.064,0.154,0.125,0.349,0.188,0.458
				c0.471,0.154,0.499-0.054,0.997,0.026c-0.237,0.602-0.081,1.249,0.342,1.656c-0.264,0.176-0.741,0.044-0.757-0.215
				c0.054,0.777-0.104,1.573-0.336,2.28c0.837-0.391,0.114,0.822,0.808,0.563c0.2-0.374,0.813-0.636,1.142-0.397
				c-0.078,0.227-0.347-0.041-0.528,0.041c0.408,0.339-0.731,0.413-0.068,0.769c-0.208-0.708-0.96-0.215-1.574-0.393
				c0.314,0.536-0.442-0.059-0.478,0.446c0.313,0.536,0.533,1.17,0.64,1.738c-0.616,0.683-0.08,1.798-0.074,2.429
				c-0.321,0.327-1.025,0.085-1.153,0.447c0.007,0.428,0.768-0.302,0.435,0.324l-0.14-0.063c0.162,0.193-0.497,1.157,0.516,1.353
				l-0.763-0.202c-0.072,0.118,0.102,0.229,0.183,0.327c-0.25,0.003-0.479,0.139-0.64-0.055c-0.535,0.389,0.081,0.825,0.101,1.251
				l0.454-0.273c0.354,0.73-0.096,1.217,0.063,1.924l-0.443-0.021l0.266,0.421c-0.43-0.103-0.707,0.284-0.347,0.506l-1.087-1.092
				c0.262-0.305,0.535,0.332,0.973,0.14c0.382-0.163,0.262-0.816-0.166-0.922c-0.049,0.25,0.049,0.263,0.208,0.457
				c-0.617,0.083-0.593-0.298-1.005-0.487c0.025,0.132-0.163,0.319,0.033,0.347c-0.301-0.258-0.347-0.52-0.362-0.951
				c0.242,0.292,0.383-0.158,0.559-0.047c-0.543-0.035-0.71-0.448-0.558-0.98c0.634-0.376-0.39-1.008-0.208-1.629
				c0.547,0.262,0.984,0.588,1.201,0.964c0.281-0.383-0.009-0.43,0.273-0.813c-0.408-0.194-1.035-0.339-1.277-0.852l0.407-0.019
				c-0.201-0.463-0.794-0.481-0.662-1.068c0.233-1.004,0.272-2.041,0.391-2.813l0.405,0c-0.826-0.492-0.238-1.453-0.535-2.071
				c0.507-0.941-0.148-2.21,0.656-2.613c-0.028-1.781,0.01-3.407,0.719-5.156l0.464,0.472c-0.309-0.442,0.393-0.103,0.411-0.433
				c-0.566,0.208-0.438-0.615-0.704-0.959c0.662-0.648,0.666-1.789,0.6-2.674l0.38,0.146c-0.409-1.045,0.701-1.549,1.271-2.298
				c0.199-0.008,0.607,0.047,0.709-0.216c-0.288-0.794-0.057-0.971,0.064-1.839c0.345-0.453,0.999-1.114,1.607-1.33
				c0.75-2.2,2.81-3.264,4.33-4.883L57.654,7.1c1.217-2.089,4.066-2.436,5.457-3.523l0.154,0.814c0.6,0.034,1.074-0.653,0.737-1.142
				c0.602,0.031,1.157-0.879,1.707-0.375c0.576-0.055,0.545-0.563,0.97-0.81c1.2-0.025,1.58-0.207,2.591-0.652l-0.272,0.024
				c-0.071,0.207,0.005,0.545,0.274,0.523c0.321-0.363,1.495-0.097,0.891-0.98c1.262,0.374,2.641-0.995,3.896-0.306
				c-0.124-0.258,0.163-0.328,0.271-0.515c1.065-0.064,2.168,0.366,3.006-0.064c0.165,0.142-0.27,0.439,0.156,0.489
				c0.254-0.088,0.01-0.348,0.328-0.479c1.771-0.456,3.433,0.734,4.944,0.938c2.835,0.01,5.538,1.29,7.885,2.418l-0.115,0.16
				c1.127-0.225,1.429,1.62,2.582,1.033c0.073,0.271,0.606,0.51,0.276,0.743c0.854-0.037,1.343,1.436,2.484,1.522
				c-0.06-0.07-0.124-0.071-0.257-0.069c0.508,0.958,1.574,1.028,2.122,1.996c-0.129-0.009-0.314-0.086-0.468,0.046
				c0.059,0.536,1.242,0.009,0.782,0.858c0.173,0.146,0.436-0.243,0.313-0.317c1.431,1.767,3.532,3.03,5.208,4.655
				c0.67,1.614-1.135,1.111,0.257,1.63c-0.072,0.199,0.324-0.171,0.186-0.033c0.518,0.221-0.322,1.273,0.273,1.227
				c0.358-0.476,0.396-0.026,0.675-0.24c0.334,1.018,0.059,1.482,0.88,1.833l-0.276,0.14c1.232,0.207,1.505,1.334,2.771,1.368
				c3.344,4.268,6.029,9.226,6.807,14.794c0.407,5.445,0.048,10.973-2.319,15.828c-1.19,0.889-1.147,0.981-1.416,2.333
				c-0.096-0.102-0.09-0.19-0.238-0.156c0.574,0.323-0.33,0.886,0.186,1.264c-0.92,1.717-1.604,3.376-2.641,5.063
				c0.105-0.303-0.272-0.709-0.43-0.374l0.154,0.545l-0.19-0.042c-0.05,0.266,0.078,0.674,0.396,0.562
				c-2.18,4.571-6.421,7.655-9.902,10.958c-1.085,0.548-2.151,1.846-3.178,2.682c-3.688,1.529-6.934,2.454-10.658,3.964
				C84.915,77.43,85.056,75.629,86.356,74.835z"/>
			<path fill="#AE3451" d="M46.762,40.892c0.328-0.124,0.507-0.525,0.945-0.206C47.398,40.726,47.055,40.933,46.762,40.892z"/>
			<path fill="#AE3451" d="M50.376,30.335c-0.097-0.021,0.143-0.137,0.197-0.166c0.017,0.129,0.283,0.269,0.106,0.357
				C50.665,30.396,50.508,30.404,50.376,30.335z"/>
			<path fill="#AE3451" d="M50.834,27.744c0.284,0.078,0.451,0.655,0.448,0.981L50.834,27.744z"/>
			<path fill="#AE3451" d="M52.394,25.596c0.275-0.15,0.398-0.069,0.345,0.192C52.584,25.778,52.523,25.677,52.394,25.596z"/>
			<path fill="#AE3451" d="M51.771,25.304c0.027-0.194,0.208-0.258,0.393-0.314C51.912,24.944,52.239,25.464,51.771,25.304z"/>
			<path fill="#AE3451" d="M53.947,20.83c0.024-0.109-0.098-0.428,0.243-0.396C53.933,20.455,54.307,21.07,53.947,20.83z"/>
			<path fill="#AE3451" d="M54.477,18.666c0.053-0.051,0.114-0.051,0.084-0.16c0.182-0.048,0.299,0.173,0.27,0.278L54.477,18.666z"
				/>
			<polygon fill="#AE3451" points="91.435,10.44 91.137,10.415 91.331,10.197 			"/>
			<path fill="#AE3451" d="M104.835,24.759c0.3,0.116-0.13,0.295-0.143,0.354C104.536,24.938,105.044,24.992,104.835,24.759z"/>
			<polygon fill="#AE3451" points="110.003,33.948 109.982,33.868 110.575,33.792 			"/>
		</g>
	</g>
</g>
<g>
	<g>
		<path fill="none" d="M64.744,38.056c0.472-9.924-4.726-16.069-13.467-20.086c-2.602-1.181-5.201-1.654-8.037-2.363
			c-7.089-1.418-23.49,0.657-30.956,6.854C4.21,29.162-0.24,43.962,4.251,54.124c5.198,12.049,20.085,19.614,32.845,21.031
			c8.271,0.708,24.577-0.237,30.719-7.09"/>
		<g>
			<path fill="#AE3451" d="M63.654,37.605c0.149,0.619,0.503-0.314,0.237,0.41C63.653,37.92,63.473,37.797,63.654,37.605z"/>
			<path fill="#AE3451" d="M65.785,68.914c-0.691,2.535-3.945,2.442-5.67,4.019c-0.229,0.151-0.211-0.808-0.7-0.423
				c-1.702,1.837-5.375,1.933-8.077,1.353l0.124-0.258c-0.51-0.085-1.021,0.752-1.565,0.704c-0.021-0.155,0.144-0.24-0.003-0.44
				c-0.079,0.484-0.929,0.326-1.119,0.701c-0.228-0.166-0.243-0.541-0.53-0.726l-0.256,0.56c-0.75,1.355-2.063,0.065-3.187,0.772
				c0.052-0.128,0.163-0.231,0.066-0.348c-1.838,0.848-4.205,0.717-6.322,0.882c0.095-0.184,0.189-0.523,0.08-0.746
				c-0.133,0.559-0.793,0.656-1.369,0.728c-0.214-0.587-1.037,0.4-1.671-0.005l0.075-0.119c-0.582,0.532-0.67-0.446-1.185,0.214
				l-0.231-0.511c-0.359,0.766-0.623-0.556-1.097-0.223l-0.021,0.168c-0.418,0.12-0.53-0.321-0.909-0.254l-0.013-0.099
				c-0.86,0.016-1.221-0.553-1.355,0.075c-0.159-0.569,0.84-0.03,0.571-0.867c-2.804,0.022-5.486-1.017-8.011-2.092
				c-0.186-0.359-0.336-0.508-0.303-0.757c-0.308,0.021-0.988-0.302-1.348-0.125c0.088,0.028-0.019-0.375-0.135-0.466
				c-0.337-0.436-0.798,0.392-1.165-0.107c0.273-0.056,0.432-0.208,0.474-0.453c-0.646,0.251-1.167-0.108-1.722-0.247
				c0.127-0.052,0.274-0.043,0.352-0.23c-0.8,0.201-0.899-0.641-1.537-0.589l0.358-0.222c-0.506-0.804-0.62,0.555-1.108-0.068
				c0.21-0.005,0.233-0.162,0.337-0.273c-0.926,0.2-1.763-0.583-2.461-0.783l0.111-0.107c-0.658-0.377-1.167-1.008-2.015-1.266
				c-0.139-0.311,0.627-0.646-0.062-1.04c-0.443,0.597-1.225-0.629-1.406,0.314c-0.469-0.521-1.076-1.461-1.567-1.61
				c0.414,0.01,0.391-0.883,0.836-0.539l0.011-0.617c0.254-0.175,0.235,0.372,0.405,0.004c-0.216-0.166-0.999-0.516-1.091-0.772
				c-0.686-0.039-1.613,0.16-2.264-0.422c0.484,0.11,0.468-0.705,0.744-0.586l-1.867,0.005c-0.202-0.211,0.421-0.415,0.019-0.629
				c-0.143,0.139-0.348,0.066-0.552,0.061c0.004-0.138-0.881-0.872-0.355-1.389c0.159-0.264,0.403,0.285,0.429-0.117
				c-0.325-0.409-0.521-0.307-0.816-0.746l0.077-0.063c-0.088-0.351-0.806-0.714-0.95-0.178c0.11,0.224,0.325-0.311,0.336,0.112
				c-0.49,0.014-0.928-0.47-1.221-0.933c0.2,0.102,0.358-0.014,0.577-0.053c-0.865-0.342-1.349-0.99-1.944-1.637
				c-0.321,0.135,0.712,0.015,0.598,0.199c-0.082-1.098-1.413-1.785-1.056-2.887c0.102,0.12-0.445,0.231-0.355,0.19
				c-0.12-0.517,0.37-0.639,0.091-0.906c0.273-0.114-0.219-0.375-0.412-0.69c-0.261-0.122,0.113-0.121,0.234,0.159
				C1.194,51.15,0.47,49.284,0.801,48.11C0.609,48.159,0.008,47.498,0,47.23l0.467,0.064c0.246-0.255-0.136-0.858,0.25-0.921
				c-0.616-0.504,0.708,2.048,0.198,1.349c0.357-0.218-0.843-0.966-0.204-0.855c-0.07-0.502-0.672-0.992-0.19-1.487
				c-0.081,0.144,0.616,0.396,0.602-0.006c-0.049-0.711-0.209-0.2-0.335-0.783l-0.17-0.37c-0.444-0.035,0.091-0.647-0.419-0.393
				c0.371-0.073-0.175-1.079,0.559-0.956l0.576,0.138c-0.028-0.307-0.587-0.548-0.829-0.819c0.055-0.037,0.175-0.108,0.268-0.084
				c-0.873-0.136,0.087-0.741-0.525-1.189c0.429-0.606,0.346-1.65,0.951-1.852C1.028,38.526,0.805,38,1.104,37.475
				c0.06,0.132,0.054,0.292,0.234,0.365c0.325-0.294,0.113-0.431,0.038-0.791c0.118,0.104,0.625-0.583,1.086-0.855
				C2.364,35.66,1.85,35.68,1.585,35.551c0.985-0.17-0.081-1.521,0.861-1.811c0.057,0.207,0.173,0.827,0.515,0.511
				c0.969-0.124-0.316-1.077,0.318-1.622L2.543,32.53c0.511-0.146-0.017-1.189,0.657-0.823c-0.129-0.327,0.609-0.68-0.074-0.9
				c1.084-0.823,1.027-2.859,2.475-2.874c-0.003-0.203,0.348-0.495-0.013-0.615c-0.504,0.032,0.01,0.48-0.282,0.429
				c0.071-0.14-0.076-0.269-0.15-0.334c0.358-0.231,0.569-0.444,0.867,0.16c0.841-0.435-0.52-1.366,0.342-2.11
				c0.211,0.212,0.349,0.21,0.493-0.075l-0.055-0.796c0.502-0.506,0.757,0.089,1.159,0.383c0.138-0.355,0.416-0.699,0.273-1.048
				l0.787,0.09c-0.567-0.066-0.012-0.416,0.022-0.622L9.01,23.601c0.205,0.096,0.407-0.295,0.516-0.493
				c-0.258-0.178-0.661,0.051-0.898,0.164c-0.026-0.285,0.223-0.465,0.221-0.83c0.291,0.4,0.685-0.196,0.933-0.373
				c0.315-0.167-0.022-0.596,0.061-0.657c0.178,0.18,0.433-0.371,0.478,0.085c-0.028,0.143-0.357,0.009-0.345,0.311
				c0.291-0.023,0.566,0.325,0.682-0.245c0.091-0.432-0.7-0.663-0.013-0.909c-0.05,0.219,0.054,0.391,0.071,0.621l0.628-0.222
				l-0.259-0.361c0.143,0.04,0.118,0.104,0.187,0.127c-0.136-0.473,0.713-0.659,0.522-1.166c0.247-0.223,0.751-0.135,1.035-0.263
				l-0.028,0.065c0.458,0.008,0.772-0.408,0.888-0.844l0.036,0.093c0.193-0.07,0.554-0.442,0.665-0.757
				c0.619,0.082,0.942,1.413,1.177,0.688c0.441-0.221,0.353-1.062,0.041-1.232c0.959-0.113,1.634-1.221,2.675-0.936
				c0.057-0.216-0.065-0.308,0.153-0.489c1.314-0.25,2.523-1.385,3.782-0.875c-0.311,0.298,0.102,0.435,0.179,0.677
				c0.188-0.48,0.469,0.282,0.391-0.411c-0.138-0.377-0.16-0.576-0.562-0.616c0.692-0.484,1.878-0.687,2.386-0.441
				c-0.256-0.131-0.121-0.289,0.019-0.445c0.096,0.637,0.677,0.602,1.053,0.283l-0.024-0.395l0.364,0.329
				c0.136-0.16,0.011-0.844,0.514-0.575l0.208,0.381c0.373-0.43,0.91-1.076,1.458-0.812l0.493,0.502
				c0.195-0.093,0.491-0.485,0.098-0.592c0.887,0.214,1.424,0.177,1.752,0.627c1.241-1.464,3.403-1.611,5.097-1.663l-0.037,0.296
				c0.466,0.24,0.214-0.528,0.541-0.349c-0.135,0.29,0.367,0.582,0.025,0.95c0.654,0.279,0.826-0.512,1.256-0.649
				c0.062-0.384-0.344,0.244-0.267-0.244c0.075-0.136,0.921,0.308,1.028-0.273c0.167,0.23,0.03,0.656-0.06,0.892l0.406-0.28
				c0.47,0.684-1.12,1.205-0.611,2.047l0.355-0.089c0.327,0.612-0.931,0.68-0.056,0.896c0.379-0.284,0.734-1.124,0.391-1.385
				c0.82-0.152,0.417-1.383,1.321-1.324c0.229,0.344-0.728,0.074-0.571,0.554c0.404,0.485,0.846-0.282,1.236-0.055
				c-0.42-0.268-0.019-0.813,0.285-0.887c0.462,0.331-0.357,0.513,0.318,0.652c0.139-0.322,0.809-0.497,0.279-0.795
				c0.34-0.727,0.703,0.295,1.164-0.241c0.14,0.556-0.877,1.14-0.171,1.496c-0.05-0.526,1.035-0.577,0.764-1.382
				c0.281,0.186,0.235,0.588-0.035,0.873c0.345,0.34,1.457-0.701,1.194,0.301l0.25-0.482c0.072,0.194,0.201,0.357,0.317,0.679
				c0.315,0.086,1.186-0.45,0.972,0.318c0.124-0.054,0.876,0.169,0.714-0.438c-0.396-0.444-0.645,0.254-0.717-0.529
				c0.166,0.664,0.696,0.089,1.016-0.041l-0.029,0.311c0.193-0.077,0.555,0.083,0.741-0.214c-0.17,0.139-0.156,0.359-0.045,0.463
				l0.291-0.411c0.734-0.053-0.065,0.82,0.646,0.886l-0.6,0.208c0.125-0.053,0.239,0.44,0.596,0.394
				c0.239-0.375,0.62-0.797,0.826-1.083c0.444-0.063,0.032,0.513,0.544,0.208l-0.649,0.343c-0.114,0.113,0.126,0.776,0.626,0.915
				c0.358-0.063,1.087-0.422,0.633-0.853c0.27,0.095,0.548,0.484,0.234,0.697c0.641,0.09,0.077-0.465,0.687-0.512
				c0.114,0.351,0.615,0.985,0.825,1.515l-0.794,0.456l0.332,0.138c-0.654,0.358,0.041,0.486-0.44,0.947
				c0.184,0.164,0.532,0.099,0.791,0.064c-0.204-1.194,1.255-0.842,1.472-1.724c0.993,0.24-0.443,2.188,1.092,1.428
				c-0.038-0.279,0.709-0.648,0.04-0.708c0.493,0.364,0.795-0.586,1.265,0.071c-0.651,0.069,0.058,1.039-0.877,1.145
				c0.189-0.232-0.266-0.389-0.407-0.37c0.054,0.411-0.471,0.758,0.059,1.034c0.372,0.08,0.809,0.336,0.98-0.092
				c0.25-0.455-0.517-0.252-0.051-0.573c0.736,0.259,0.428,0.989,1.172,0.401c-0.442-0.207-0.273-0.718-0.085-1.011l0.597,0.141
				l-0.273,0.222c0.641,0.715,0.559-0.361,1.269,0.219l-0.025,0.781c-0.5,0.353-0.94-0.931-1.319-0.064
				c0.45,0.344,0.878,0.061,1.189,0.558l-0.44-0.071c0.157,0.144-0.4,1.254,0.684,1.111c0.501,0.028,0.29-0.197,0.509-0.473
				c0.775,0.527,1.22,0.443,1.722,0.809c-0.543,0.427,0.768,0.76-0.204,0.833c0.043-0.495-1.031-1.375-1.672-1.07
				c-0.227,0.833-0.491-0.537-1.146,0.042c0.578,0.406,0.066,1.022-0.168,1.507c0.119,0.152,0.393,0.099,0.529,0.111
				c0.368-0.329,0.173-0.488,0.473-0.894c0.518,0.624,1.266,0.914,1.933,0.866c0.039,0.357-0.364,0.651-0.63,0.481
				c0.845,0.47,1.441,1.337,1.909,2.12c0.232-0.964,0.803,0.663,1.063-0.058c-0.178-0.493-0.033-1.203,0.428-1.21
				c0.173,0.285-0.276,0.214-0.319,0.427c0.609,0.049-0.143,0.917,0.66,0.809c-0.796-0.553-0.886,0.456-1.491,0.704
				c0.679,0.263-0.371,0.25,0.017,0.711c0.63,0.286,1.227,0.823,1.708,1.358c-0.011,1.005,1.01,1.96,1.28,2.727
				c-0.155,0.493-0.915,0.476-0.885,0.913c0.186,0.464,0.595-0.593,0.545,0.21l-0.158-0.025c0.285,0.164-0.045,1.4,0.938,1.395
				l-0.786-0.048c-0.044,0.15,0.15,0.234,0.251,0.328c-0.242,0.062-0.436,0.263-0.635,0.085c-0.437,0.543,0.248,0.887,0.358,1.367
				l0.391-0.381c0.503,0.782,0.197,1.398,0.333,2.193l-0.442,0.005l0.276,0.463c-0.432-0.093-0.698,0.347-0.333,0.585l-1.112-1.149
				c0.253-0.351,0.541,0.323,0.974,0.085c0.375-0.208,0.251-0.95-0.232-1.01c0.008,0.279,0.1,0.281,0.262,0.485
				c-0.609,0.146-0.591-0.278-1.059-0.425c0.053,0.136-0.098,0.35,0.087,0.362c-0.322-0.246-0.439-0.501-0.531-0.943
				c0.296,0.267,0.349-0.222,0.543-0.135c-0.544,0.042-0.787-0.345-0.737-0.921c0.521-0.53-0.521-0.955-0.622-1.561
				c0.609,0.076,1.188,0.27,1.452,0.63c0.199-0.494-0.108-0.458,0.006-0.94c-0.465-0.077-1.116-0.022-1.532-0.426l0.371-0.166
				c-0.363-0.385-0.92-0.155-1.018-0.754c-0.188-1.028-0.84-1.893-1.156-2.615l0.319-0.252c-0.895,0.086-1.188-0.956-1.84-1.18
				c-0.306-1.083-1.775-1.256-1.692-2.117c-1.509-1.001-3.046-1.511-4.56-2.591l0.572-0.368c-0.516,0.221-0.031-0.398-0.375-0.478
				c0.116,0.59-0.707,0.322-1.077,0.538c-0.537-0.802-1.716-0.862-2.513-0.683l0.124-0.388c-0.911,0.429-1.503-0.444-2.373-0.827
				c-0.058-0.189-0.11-0.615-0.404-0.638c-0.672,0.509-0.923,0.398-1.755,0.614c-0.533-0.133-1.425-0.511-1.926-0.896
				c-1.938,0.577-3.884-0.141-6.003,0.46l-0.16-0.479c-1.99,1.116-4.569,0.349-6.246,1.191l0.052-0.831
				c-0.589-0.166-1.223,0.398-0.987,0.948c-0.587-0.153-1.292,0.564-1.751,0.011c-0.579-0.02-0.596,0.525-1.024,0.736
				c-1.156-0.05-1.554,0.114-2.542,0.495l0.268-0.009c0.066-0.2-0.01-0.537-0.283-0.528c-0.335,0.287-1.439,0.228-0.799,1.026
				c-1.218-0.174-2.31,1.204-3.559,0.88c0.178,0.209-0.042,0.368-0.072,0.58c-0.829,0.4-1.969,0.326-2.444,1.038
				c-0.198-0.056,0.008-0.5-0.356-0.365c-0.16,0.184,0.159,0.309-0.024,0.554c-0.855,1.266-2.773,1-3.602,2.148
				c-1.36,1.928-3.017,3.78-4.095,5.868l-0.159-0.119c0.315,1.042-1.519,1.328-0.789,2.366c-0.253,0.089-0.402,0.594-0.687,0.325
				c0.273,0.781-1.039,1.516-0.711,2.604c0.044-0.074,0.023-0.131-0.025-0.25c-0.713,0.754-0.46,1.678-0.97,2.554
				c-0.063-0.117-0.087-0.309-0.272-0.385c-0.439,0.3,0.634,1.063-0.328,1.076c-0.035,0.219,0.434,0.245,0.432,0.11
				c-0.901,2.046-0.332,4.44-0.127,6.549c-0.374,1.56-1.568,0.213-0.721,1.38c-0.169,0.123,0.365,0.032,0.173,0.071
				c0.315,0.434-0.955,0.896-0.429,1.165c0.555-0.233,0.345,0.17,0.691,0.118c-0.312,1.027-0.617,1.314,0.004,1.931l-0.311,0.028
				c1.107,0.607,0.938,1.688,2.104,2.03c2.14,4.269,5.722,7.446,9.651,10.15c3.735,2.983,8.263,4.669,12.804,6.596
				c0.88,1.117,1,1.106,2.321,1.105c-0.082,0.112-0.167,0.123-0.112,0.262c0.216-0.626,0.894,0.169,1.151-0.426
				c1.729,0.471,3.531,0.626,5.21,0.717c-0.301,0.05-0.491,0.573-0.13,0.556l0.397-0.392l0.05,0.188
				c0.248-0.077,0.534-0.399,0.291-0.616c4.74-0.341,9.653,0.683,14.275-0.321c1.148,0.075,2.638-0.521,3.72-0.974
				c3.485-0.068,7.005-0.882,8.679-3.528C65.692,66.153,66.729,67.589,65.785,68.914z"/>
			<path fill="#AE3451" d="M63.569,36.871c0.325-0.128,0.494-0.573,0.939-0.228C64.202,36.691,63.863,36.916,63.569,36.871z"/>
			<path fill="#AE3451" d="M63.123,24.314c-0.091,0.044-0.016-0.225-0.001-0.29c0.126,0.111,0.449,0.071,0.397,0.274
				C63.392,24.181,63.281,24.292,63.123,24.314z"/>
			<path fill="#AE3451" d="M61.029,21.594c0.259-0.2,0.919,0.204,1.233,0.527C61.843,21.939,61.471,21.713,61.029,21.594z"/>
			<path fill="#AE3451" d="M59.377,18.56c-0.08-0.356,0.072-0.445,0.363-0.18C59.667,18.521,59.521,18.499,59.377,18.56z"/>
			<path fill="#AE3451" d="M58.792,18.956c-0.222-0.14-0.229-0.351-0.236-0.558C58.414,18.606,59.157,18.614,58.792,18.956z"/>
			<path fill="#AE3451" d="M53.334,14.746c-0.149-0.045-0.578-0.013-0.606-0.359C52.847,14.667,53.616,14.418,53.334,14.746z"/>
			<path fill="#AE3451" d="M50.085,13.914c-0.092-0.048-0.117-0.111-0.255-0.069c-0.141-0.181,0.114-0.327,0.277-0.306
				L50.085,13.914z"/>
			<polygon fill="#AE3451" points="2.561,33.12 2.534,32.754 2.788,32.905 			"/>
			<path fill="#AE3451" d="M3.304,57.138c0.311,0.213-0.136,0.343-0.146,0.413C2.992,57.292,3.522,57.479,3.304,57.138z"/>
			<polygon fill="#AE3451" points="12.77,65.979 12.69,65.923 13.09,65.479 			"/>
		</g>
	</g>
</g>
</svg>
